# xmcd CD database file
#
# Track frame offsets:
#	150
#	23445
#	49110
#	74137
#	100570
#	123735
#	133405
#	159962
#	175805
#	201120
#
# Disc length: 2900 seconds
#
# Revision: 0
# Processed by: cddbd v1.4PL0 Copyright (c) Steve Scherf et al.
# Submitted via: CDex 1.50
#
DISCID=890b520a
DTITLE=Die Elefanten - immer alle immer ich
DYEAR=1987
DGENRE=Jazz
TTITLE0=Tanzen Sie Jetzt
TTITLE1=Mess in the Garden
TTITLE2=Rot für Rosa
TTITLE3=Das schwarze Loch
TTITLE4=Crayzy for You
TTITLE5=Immer alle immer ich
TTITLE6=A Lazy B
TTITLE7=Elefantasia - Max
TTITLE8=Elefantasia - Teufels Küche
TTITLE9=Elefantasia - Mozambique
EXTD=YEAR: 1987
EXTT0=
EXTT1=
EXTT2=
EXTT3=
EXTT4=
EXTT5=
EXTT6=
EXTT7=
EXTT8=
EXTT9=
PLAYORDER=
